<?xml version="1.0" encoding="UTF-8"?>
<svg version="1.1" viewBox="0 0 700 700" width="200" height="200" xmlns="http://www.w3.org/2000/svg">
<path transform="translate(0)" d="m0 0h800v800h-800z" fill="#C4BEB4"/>
<path transform="translate(0)" d="m0 0h597v77h-445l1 214v267l-1 166h8l5 2 1 5h4v2l7 1 15 5 12 1 32 2 33 1h38l34 1 20 1h66l48 2h22l6 1h26l17 1 27 1h53l15 1h14l21-2 12-4 9-10 5-5 1-2h2l2-5 5-13-1-5 1-3 3-2 1-12v-13l-2-18v-41l-1-3v-21l-1-31-2-26v-12l-2-33-1-7 1-4-1-8 1-13-1-16 1-4-1-16v-35l-2-3 1-17-1-2v-58l-1-13v-18l-1-1v-9l1-12-1-1v-10l2-19v-41l-1-15v-10l-3-44-4-17-3-6-8-8-12-9-15-2-11-3-9-3-8-1-24-5-6-1v2h-2v-61h201v800h-800z" fill="#A9A49F"/>
<path transform="translate(597)" d="m0 0h2v61h2v-2l12 1 18 4h5l7 2 7 3 9 2 15 2 14 11 8 8 3 8 3 14 3 47v13l1 15v37l-2 20v7l1 1-1 21 1 1v25l1 13v51l1 7-1 12 2 3v41l1 11-1 3 1 19-1 15 1 6-1 1 1 7 2 38v10l2 24 1 39v12l1 9v35l2 18v15l-1 10-4 2v5l1 3-6 15-2 3h-2l-2 5-6 5-7 8-12 4-21 2h-21l-16-1h-47l-50-2h-19l-10-1h-20l-30-1-18-1h-64l-25-1-36-1h-40l-27-1-28-2-12-1-17-6-5-1v-2h-4l-1-5-13-2v-647h445zm-334 100-7 2-9-1h-20l-6 2-18 1-5 4-9 3 1 4 217 1v8l-217 1v2l217 1 1 13h-219v2h218l1 65h-219l-1 3h220l-1 68h-181l-36 1 3 2 3 10 3 5 2 1 2 7v8l-1 1v-3l-4-3v7l-3 12h-2l-2 5-1 46 1 12-1 10 1 3-1 13v8l1 6-1 1 1 14v20l2-1 1-8v-4l1 2 1 13 1 3v23l2 18 1 6h1l1-17-1-17v-6l1 6v16l2 27 1 57-2-4-1 3v12l1 5 1 16 2-3 1 33-3 31 1 8 1 4 2 5 4 5 19 3 29 1h16v2h11 2l10-1 3 1h32v-1l-5-1h11l2 1 2-1 1 2h55l7-1 5-1 5 1 3 1h88l12-2v2h13l10-1h8v-1l43-3 11-2 8-4 5-5 6-7 5-15 1-1 1-7 2 4h1l1-18v-40h-1l-1 10v-13l-2-23v-21l-1-12 1-12v-26l4-18 2-16v-59h-1l-1 10v48l-3 14v6l-3 12-4 3 2 9v25l-2 12v14l-1 3v29l1 3h-2v-15l-1-9-2-6v-8l-5-15-1-11-4-14-1-3 2-1 2-11 1-4 3-1v-2h2l4-7 4-9 3-16v-23l-2-4 1-7 2-7 1-15-1-17-2-9-4-10-2-21-2-7-1-9h2l2-7 2-16 1-7v-9l-2-12v-35l-1-6v-29l1-5v-51l1-9v-7l4-25-2-9-2-3 3 3 1 2 1 16-1 15v15l-2 9 1 8v11l-1 5 2 3v12l-1 12v42l1 4v23l-1 9-1 5 1 7v15l1 3 3 19-1 3v7l1 5 1 20 1 17 1 12h1v-25l-1-41-1-14v-16l1-13-1-27-3-16 1-11v-35l1-12 2-4-1-4-1-1-1-17v-16l2-9v-10l1-2v-24l1-3-2-2-1 1-2-3-10-5-4-1-12 1h-9l-22-3-23-1-2 2 4 1 24 2 10 2 23 2h5l-9 1-32-4-34-2h-21l-6-1 4-1 21-1v-1h-31l-13 1-4 1h-8l-2 1-1-2h-2v2l-11-2h-24l-12 1h-9l-9 1h-13v2l-6-1h-38l-39-1-10-1-2 1-4-1-6 1-18-2z" fill="#A9A29B"/>
<path transform="translate(597)" d="m0 0h2v61h2v-2l12 1 18 4h5l7 2 7 3 9 2 15 2 14 11 8 8 3 8 3 14 3 47v13l1 15v37l-2 20v7l1 1-1 21 1 1v25l1 13v51l1 7-1 12 2 3v41l1 11-1 3 1 19-1 15 1 6-1 1 1 7 2 38v10l2 24 1 39v12l1 9v35l2 18v15l-1 10-4 2v5l1 3-6 15-2 3h-2l-2 5-6 5-7 8-12 4-21 2h-21l-16-1h-47l-50-2h-19l-10-1h-20l-30-1-18-1h-64l-25-1-36-1h-40l-27-1-28-2-12-1-17-6-5-1v-2h-4l-1-5-13-2v-647h445zm-424 83-10 1-1 8-1 112v201l1 119 1 191 1 1 23 1h457l3-1 1-30v-353l-1-237-1-11-1-1-8-1z" fill="#837E79"/>
<path transform="translate(210)" d="m0 0h387v77h-310l-75-1 1-11-3-6-1-1v-25l2 4v-7l-2 1v-14l1-8z" fill="#A9A49F"/>
<path transform="translate(190,112)" d="m0 0h277l17 5 14 8 6 5 8 10 6 12 2 7 2 12v54l-3 14-7 14-9 10-8 6-16 7h-11v116l-3 8-5 6-10 5-4 1h-15l-1-1v-28l1-80v-175h-2l-1 344h-21v-169l1-92h-220l1-3h219l-1-65h-218v-2h219l-1-13-217-1v-2l217-1v-8l-217-1z" fill="#C9461C"/>
<path transform="translate(597)" d="m0 0h2v76l54 1 1 1 1 350v293l-4 2h-499v-646h445zm-424 83-10 1-1 8-1 112v201l1 119 1 191 1 1 23 1h457l3-1 1-30v-353l-1-237-1-11-1-1-8-1z" fill="#37332F"/>
<path transform="translate(173,83)" d="m0 0h464l8 1 1 1 1 11 1 237v353l-1 30-3 1h-457l-23-1-1-1-1-191-1-119v-220l1-93 1-8zm56 3v2h-5v-1h-19l-8 1 2 2-7-1-9 3-4 6 1 4 2-4-3 10-2 5v75l1 17v216l-1 47v50 4 24l1 4v5l-1 1v6l1 7-1 5v116l2 19 1 3 7 3 25 1h79l26-1h142v-1l5-1h21v1l8 1 5-1v-1h22l7 1h52v-1h15v1h5l4-1 3 1h23l3-1 1 1 8-1 3-3v-142l1-350v-111l-1-18-5-2h-31l-5 1-2 1-4-1v-1h-9-1l-61-1-1 1h-7-3-9l-1 1v-1h-43v1h-26l-3-1v2l-60-1v-1h-15-2-13-2l-8 1-10-1h-3-6l-2 1-7-1-2 1-8-1-4 1-4-1-3 1-6-1-3 1-7-2-1 1-2-1v2l-6-2-7 1-3-1v2l-4-2h-4-3v2z" fill="#807C76"/>
<path transform="translate(408,489)" d="m0 0 8 4 16 11 13 9 15 10 15 1 2-7 19-13 3-1 1 5 1 177-5 1h-67l-1-1-1-152-1-13-2-1-1 166-3 1h-12l-1-2v-193z" fill="#D46E24"/>
<path transform="translate(406,142)" d="m0 0 2 1v65h-220l-1-1v-8h30l10-1 168-1-207-1-1-1v-17l1-8 1 2 89-2 60-1h-101l-49-1-1-4 1-21z" fill="#C8A58A"/>
<path transform="translate(188,211)" d="m0 0h220v87h-1v-19h-2v-2h-115l-101-1-1-1v-9l1-2 76-1 1-1h138l-216-2-1-3 1-2 65-1h150l3 1v-3l-181 1-36-1 2-5h2v-13l-3-12 1-5-3-1z" fill="#C5BFB6"/>
<path transform="translate(332,304)" d="m0 0h18l10 3 10 7 7 8 5 10 2 5v101l-2 2-3 9-7 10-10 8-11 5h-19l-1-3-8-1-11-10-7-10-3-9v-104l6-13 9-10 9-6z" fill="#35312D"/>
<path transform="translate(236,302)" d="m0 0h13l12 3 11 6 8 7 7 11 4 11 1 8h-32l1 76 31 1-1 7-5 13-6 9-8 9-9 5-8 3-7 1h-14l-14-6-11-9-7-9-5-11-1-4-1-81 1-14 4-10 6-9 10-9 12-6z" fill="#D46E24"/>
<path transform="translate(542,304)" d="m0 0h19l1 44 1-44h22l12 6 7 7 4 10v59l-3 7-5 6-5 3 3 21 10 43v5l-4 1-17-1-2-6-3-17-2-9-2-10-2-5-1-11-3-6-8-2-1 66-1 1h-19l-1-1-1-134v-32z" fill="#D3461C"/>
<path transform="translate(407,112)" d="m0 0h60l17 5 14 8 6 5 8 10 6 12 2 7 2 12v54l-3 14-7 14-9 10-8 6-16 7-11-1-2-4v-63l-2-38-3-26-7-11-5-5-6-7-6-4-2-3-28-1z" fill="#D46E24"/>
<path transform="translate(568,484)" d="m0 0h20l2 18 2 2 2 23 2 2 2 12 2 15 2 9 1 10 4 15 1 18 5 28 2 4v3l-2 1h-20l-5-31-1-1-27-1-2 15-3 16-2 2h-19l-1-5 3-13 20-99 5-23 4-16 1-3z" fill="#D46E24"/>
<path transform="translate(406,142)" d="m0 0 2 1v29h-35l-95-1v-1l60-1h-101l-49-1-1-4 1-21z" fill="#D3B69F"/>
<path transform="translate(598,76)" d="m0 0 55 1 1 1 1 350v293l-1 1h-484v-1l247-1h106l128 1v-2l-265-1v-1l261-1v-383l-1-237-1-11-8-1-53-1-254-1v-1l65-1h78l115 1h61l2-3h-53z" fill="#37342F"/>
<path transform="translate(654,80)" d="m0 0h1l2 12 3 9v12l1 13 1 21v235l1 20v33l-1 14v29l1 19v120l2 50 1 14 1 5v13l-3 10-6 9h-2l-1 3-1-297z" fill="#66625C"/>
<path transform="translate(338,324)" d="m0 0h9l10 7 3 4 3 7v89l-2 3-2 7-8 7-4 2h-9l-8-4-6-7v-103l3-2 2-5 8-4z" fill="#C4BFB6"/>
<path transform="translate(485,304)" d="m0 0h34v20l-10 1-1 55h11v22h-11v48h11v22h-32l-1-6-1-84z" fill="#37332F"/>
<path transform="translate(253,254)" d="m0 0h150l-1 2h-4v2l-2 1 10 1v12l-1 5h-115l-101-1-1-1v-9l1-2 76-1 1-1h138l-216-2-1-3 1-2z" fill="#D4B49A"/>
<path transform="translate(215,484)" d="m0 0h40v22l-1 1h-17v47h15v21l-1 1h-14v68h-22z" fill="#393531"/>
<path transform="translate(337,485)" d="m0 0h19l1 3v136h31v21h-52v-54z" fill="#D3471C"/>
<path transform="translate(407,303)" d="m0 0h21v169h-21z" fill="#0D0B0C"/>
<path transform="translate(542,304)" d="m0 0h19l1 44 1-37h1l1 89 1 4-2 1-1 66-1 1h-19l-1-1-1-134v-32z" fill="#D46E24"/>
<path transform="translate(285,485)" d="m0 0h20l1 1v157l-1 1h-20z" fill="#D46E24"/>
<path transform="translate(568,484)" d="m0 0h20l2 18 2 2 2 23 2 2 2 12 2 15 2 9 1 10 4 15 1 18-19-2-2-2-3-12-2-15-3-12-3-16-2-17-2-3-1-5-1-14-4-18v-7z" fill="#36312C"/>
<path transform="translate(406,127)" d="m0 0h1v13h-219v-10l1-2z" fill="#D6B89F"/>
<path transform="translate(645,118)" d="m0 0h1l1 291v249l-1 57-3 1h-352v-1l26-1h136v-1l11-1h32l-3 2 4-2h23l7 1h45v-1h24l3 1 4-1 3 1h23l3-1 1 1h8l1-3h2l-1-142 1-350v-99z" fill="#837F79"/>
<path transform="translate(597)" d="m0 0h2v74l-1 4h53l-2 4h-61l-115-1h-78l-71 1h-168l-3 4v-9h444z" fill="#1F1C1B"/>
<path transform="translate(406,142)" d="m0 0 2 1v11h-43l-42 1-35-1-1-2h-84l-11-2-2-6 55-1z" fill="#CAC0B4"/>
<path transform="translate(161,83)" d="m0 0h12v1h-10l-1 120v201l1 119v175h-1l-1-150-1-9-1-27-1-28-1-16v-16l-1-18 1-47v-178l-1-19v-56l1-27v-16l3-7z" fill="#43403A"/>
<path transform="translate(188,170)" d="m0 0 1 2 41-1h169l9 1v9l-220-1-1-2z" fill="#CBC2B6"/>
<path transform="translate(414,141)" d="m0 0 2 1 1 108 1 46 5 5v-2l4 1v-99h1v102h-20v-92h-220l1-3h219v-64h1l1 73 1-72v-3z" fill="#D0642D"/>
<path transform="translate(596)" d="m0 0h1v77h-289v-1l149-1-1-4 1-1 10-1h10v-2l48-1h17l4-1 13-1h10l11-1 2-1h11l1 1 1-8v-24z" fill="#827E78"/>
<path transform="translate(405,115)" d="m0 0 3 1v8h-219l-1-1v-6l1-1h158z" fill="#E6D3C0"/>
<path transform="translate(574,552)" d="m0 0h2l2 9 2 4 3 12 3 19 3 9 16 2 3 2 5 27 2 4v3l-2 1h-20l-5-31-1-1-27-1v-3l14-1 2-3h-12l-1-3 3-17 5-27z" fill="#D06A24"/>
<path transform="translate(187,199)" d="m0 0 103 1 20 1h38v1l18 1 15-3 24-1 3 1v8h-220l-1-1z" fill="#CCC4B9"/>
<path transform="translate(168,717)" d="m0 0h218l263 1 2 1v2h-482l-3-3z" fill="#141211"/>
<path transform="translate(173,83)" d="m0 0h464l8 1v1h-456l-19 1-5 1-1 20v496h-1l-1-79-1-119v-220l1-93 1-8z" fill="#66625C"/>
<path transform="translate(592,402)" d="m0 0h2l5 25 9 39v5l-4 1-17-1-2-6-3-17-2-9-2-10-2-5-1-11-3-7 13-3z" fill="#D46E24"/>
<path transform="translate(520,488)" d="m0 0h3v162l-1 35h-6v-195z" fill="#D46E24"/>
<path transform="translate(510,494)" d="m0 0h1v191l-2 1-5-1-1-186z" fill="#D46D24"/>
<path transform="translate(336,623)" d="m0 0h21l31 1v21h-52z" fill="#0F0C0C"/>
<path transform="translate(651,722)" d="m0 0 3 1-2 1-76 1h-19l-47 1h-258l-41-1-59-1v-1z" fill="#66625C"/>
<path transform="translate(623,110)" d="m0 0 5 1 3 5 1 16-1 15v15l-2 9 1 8v11l-1 5 2 3v12l-1 12v42l1 4v23l-1 9-2 5-2-3-2-12v-35l-1-6v-29l1-5v-51l1-9v-7l4-25-2-9z" fill="#AAA5A0"/>
<path transform="translate(500,517)" d="m0 0h1l1 31 1-31h1v168h6l1-122h1v124l-44 1-40-1 1-2h72l-1-2z" fill="#CFAD92"/>
<path transform="translate(631,162)" d="m0 0h1l1 23 1 9 2 2-1 5-1 2-1 20v30l-1 9 3 15 1 29-1 13v14l1 19 1 39v22h-1l-1-12-1-17-1-22-1-3v-7l1-5-3-19-1-3v-18l-1-5 1-2 1-9v-23l-1-8v-42l1-10v-10l-2-3 1-5v-14l-1-5z" fill="#C5C0B7"/>
<path transform="translate(406,127)" d="m0 0h1v13h-211l1-3 8-1 6-1 7 1h12 4l5-1v2l8-2 4 2 2-1h5 4 4v2l6-1h22l12 1 8-1h33l7-1h6l5-1 23-2 2-1 6 2v-2h2v-2l7-1z" fill="#CBC3B8"/>
<path transform="translate(445,136)" d="m0 0 2 3 2 65 1 5h1l1 97-2 1-4-1-2-120v-49z" fill="#C49978"/>
<path transform="translate(574,552)" d="m0 0h2l2 9 2 4 3 12 3 19-1 8h-21l-1-3 3-17 5-27z" fill="#D3461C"/>
<path transform="translate(456,164)" d="m0 0h2l2 4v143h-4l-1-1v-144z" fill="#CEAC91"/>
<path transform="translate(429,128)" d="m0 0h2l1 5v170l-2 1-2-1v-172z" fill="#E2CBB5"/>
<path transform="translate(437,137)" d="m0 0h2l1 6 1 93v33l-1 35h-4v-162z" fill="#D6B79D"/>
<path transform="translate(189,208)" d="m0 0h219v3h-220z" fill="#8F6E58"/>
<path transform="translate(276,116)" d="m0 0h126v1l-8 1-3 1v2l-9 1h-81l-13-3-8-1z" fill="#C5BFB5"/>
<path transform="translate(514,491)" d="m0 0h1v195l-3-1v-193z" fill="#E7D4C0"/>
<path transform="translate(426,530)" d="m0 0 2 3v154h-3l-1-41v-115z" fill="#E6D4C0"/>
<path transform="translate(206)" d="m0 0h4l1 12-1 5v11l2 2v7l-2 1v20l2 2 2 5v6l-2 5h75v1h-134v-1h51v-19l1-49z" fill="#827E78"/>
<path transform="translate(168,717)" d="m0 0h218v1l-194 1 225 1v1h-248l-3-3z" fill="#1B1917"/>
<path transform="translate(504,604)" d="m0 0h1l1 6 2-2v5h2l1 24v48l-2 1-5-1z" fill="#D56F24"/>
<path transform="translate(188,260)" d="m0 0h101l116 1-2 2h-137l-1 1h-77z" fill="#976C50"/>
<path transform="translate(617,658)" d="m0 0h4l-1 6-3 7h-2v8l-4 4-3 6-2 2-9 3-9 1-13-1h-13l3-2 11-3 6-4 9 1 3-5h3v-2l3 1 1 6 3 1v-2h2v-7l-2-1 1-1h5l-1-9 3-1-1-6z" fill="#AAA5A0"/>
<path transform="translate(253,188)" d="m0 0 4 1 4-1 2 1 5-1 5 2 20 1 22 3v1l-76 1h-47v-1l24-2 21-3 5-1z" fill="#C5C0B6"/>
<path transform="translate(227,252)" d="m0 0h179v3h-217v-2z" fill="#73665B"/>
<path transform="translate(372,148)" d="m0 0 1 2 6-2 7 1 5 1v2h5v1l-6 1h-25l-42 1-35-1 1-3 2-1 21-1 12 1 6-1 5 1 1-1h17 3 14l2 1z" fill="#D6B79E"/>
<path transform="translate(190,112)" d="m0 0 218 1-1 2h-217z" fill="#634432"/>
<path transform="translate(422,121)" d="m0 0 3 1-1 28 1 51-1 10h-3v3h-2l-2-12 1-4 1-54 1-18h3z" fill="#D15F27"/>
<path transform="translate(500,517)" d="m0 0h1l1 31 1-31h1v168h-1l-1-101-1 99h-1z" fill="#C49978"/>
<path transform="translate(597)" d="m0 0h2v74l-1 4h53l-2 4h-61l-9-1 1-3h17z" fill="#211F1C"/>
<path transform="translate(461,78)" d="m0 0h119l-1 3h-106l-57-1v-1z" fill="#161413"/>
<path transform="translate(333,64)" d="m0 0 9 1v1l-10 1-3 2-10 2-1-2-7-1-1 1-12 1h-4v-3l-11 4-6-1-4 1h-2v-2h-14l-8 1-20 2v-2h-11l-3-1 1-3 8 1 8-2 3 1h27l6-1 5 2h9l2-1 14-1 9 1 10-1h10z" fill="#837F79"/>
<path transform="translate(190,168)" d="m0 0h148l65 1v1l-125 1h-88z" fill="#754B33"/>
<path transform="translate(406,303)" d="m0 0h1v169h-1l-1-36-1-16v-82l1-1v-30z" fill="#9A9590"/>
<path transform="translate(376,705)" d="m0 0h109l7 1h22l7 1v1l-12 1-23-1-38 1-55-1h-38l-11-1v-1z" fill="#C5C0B7"/>
<path transform="translate(217,199)" d="m0 0h177v1l-18 2-13 2-17-1v-1h-40l-16-1-73-1z" fill="#D6B79E"/>
<path transform="translate(458,195)" d="m0 0h1v117l-4-2 1-111z" fill="#E7D4C0"/>
<path transform="translate(243,154)" d="m0 0h36l120 1v1l-123 1h-86v-1z" fill="#733E21"/>
<path transform="translate(189,152)" d="m0 0 96 1 38 1v1h-80l-28 1 25 1v1h-51z" fill="#B39177"/>
<path transform="translate(450,202)" d="m0 0 2 3 1 22 1 1v75l-2 3-1-3-1-82h-1v-16z" fill="#D4461C"/>
<path transform="translate(210,135)" d="m0 0 9 1h11 4l5-1v2l8-2 4 2 2-1h5 4 4v2l6-1 5 1 3 2h-84l1-3 8-1z" fill="#CCC4B9"/>
<path transform="translate(365,153)" d="m0 0h41l2 1v5l-3-2h-129v-1l48-1v-1z" fill="#998675"/>
<path transform="translate(339,168)" d="m0 0h69v4h-35l-95-1v-1l61-1z" fill="#A78C76"/>
<path transform="translate(406,157)" d="m0 0 2 2v9l-4 1-26-1-5-1v-1l11-1 3-1 1-3h3l1-2h8l2 1v-2z" fill="#C6BFB4"/>
<path transform="translate(153,77)" d="m0 0 59 1-1 2 22 1v1h-77l-3 4z" fill="#1A1816"/>
<path transform="translate(188,143)" d="m0 0h57v1l-54 1 1 5 11 1h84l1 3-97-1-2-1v6h-1z" fill="#D1AF94"/>
<path transform="translate(423,517)" d="m0 0 3 1 1 2v10l-2 2-1 154-4-1h3z" fill="#C49978"/>
<path transform="translate(360,338)" d="m0 0 3 4v89h-1l-1-7-2-4-1-5 1-3v-10l1-13 1-29v-17z" fill="#A49F9A"/>
<path transform="translate(206)" d="m0 0h3l-1 57-1 18h-2v-67z" fill="#6D6963"/>
<path transform="translate(189,116)" d="m0 0h51v1l-16 1h-11l-3 1-1 2-6 1 11 1v1h-25l-1-1v-6z" fill="#C8BEB2"/>
<path transform="translate(142,26)" d="m0 0 2 1-1 10-1 3h-2l-1 4-2 5-5 2-1 8-4 1v-5l4-8 1-8 4-4 3-8z" fill="#C5C0B7"/>
<path transform="translate(438,132)" d="m0 0 2 2v9h-1v-6h-2l-1 161h-1v-160l2-5z" fill="#D46E24"/>
<path transform="translate(445,136)" d="m0 0 2 3v60l-1 10h-1l-1-23v-49z" fill="#D0AE92"/>
<path transform="translate(518,78)" d="m0 0h62l-1 3h-56l-5-1z" fill="#141211"/>
<path transform="translate(403,184)" d="m0 0h4v12l-31-1 2-2 5-1h2l7-3 6-2v-2z" fill="#C5C0B6"/>
<path transform="translate(510,494)" d="m0 0h1v33l-1 12-2-1-3-7v-9l2-2v-12l-2-2v-9z" fill="#CE5D26"/>
<path transform="translate(422,121)" d="m0 0 3 1-2 46h-3l-1-23 1-19h3z" fill="#D46B24"/>
<path transform="translate(584,49)" d="m0 0h9l2 1v4l-7-1-9 2-4 1-22 3-5 1h-21l-2-2 29-2 21-3z" fill="#837F79"/>
<path transform="translate(426,530)" d="m0 0 2 3v120h-1l-1-100h-1l-1-10v-12z" fill="#D4B59C"/>
<path transform="translate(432,167)" d="m0 0h1l1 125h1v10l-3 1z" fill="#743D1F"/>
<path transform="translate(407,230)" d="m0 0h1v68h-1v-19h-2v-13l1-6h-19v-1l11-1v-2l8-2z" fill="#D0BAA7"/>
<path transform="translate(636,414)" d="m0 0h1v62l-4 24-2 4-1-4 2-9 1-8 2-14v-45z" fill="#C5C0B7"/>
<path transform="translate(458,251)" d="m0 0h1v61l-4-2v-10l1-1 1-47z" fill="#D8CBBC"/>
<path transform="translate(502,499)" d="m0 0 2 1v17l-1 35-2-4-1-31-1-12-1-3z" fill="#D6B79D"/>
<path transform="translate(450,202)" d="m0 0 2 3 1 22-1 76h-1l-1-82h-1v-16z" fill="#D46C24"/>
<path transform="translate(437,137)" d="m0 0h2l1 6v30h-1l-1-5-1 6h-1v-32z" fill="#D1AF94"/>
<path transform="translate(505,656)" d="m0 0h1l1 13 2-1 2-4v21l-2 1-5-1z" fill="#D15D26"/>
<path transform="translate(280,137)" d="m0 0h14l12 1 8-1 21 1v1l-7 1h-48l-3-2z" fill="#C6C0B7"/>
<path transform="translate(142,11)" d="m0 0h8l1 1v6l-1 2h-3l-1 3-8-1 1-8z" fill="#C5C0B7"/>
<path transform="translate(437,167)" d="m0 0 2 1 1 5v24l-4 1v-24z" fill="#DDC3AC"/>
<path transform="translate(485,391)" d="m0 0h1l1 81-4-1 1-6v-71z" fill="#AAA5A0"/>
<path transform="translate(510,527)" d="m0 0h1v38l-1 4-2 4v-32l1-2z" fill="#D26425"/>
<path transform="translate(411,692)" d="m0 0 4 1-3 2 4 2 13 1v1l-23 1-11-1 2-2z" fill="#AAA5A0"/>
<path transform="translate(406,303)" d="m0 0h1v56l-3-4v-17l1-1v-30z" fill="#9D9993"/>
<path transform="translate(209)" d="m0 0h1l1 12-1 5v11l2 2v7l-2 1-1 19h-1v-55z" fill="#837F79"/>
<path transform="translate(474,712)" d="m0 0h22l-4 2 1 2h-26l-2-3z" fill="#8A8680"/>
<path transform="translate(431,525)" d="m0 0h5l1 17-1 1h-5z" fill="#C79F7F"/>
<path transform="translate(231,65)" d="m0 0 10 2v2h-2v2l-10 1v-2h-11l-3-1 1-3 8 1z" fill="#85817B"/>
<path transform="translate(584,773)" d="m0 0 16 1v2h3l-2 8h-2v-2l-5-1 2 5-5-3 1-4 5-2-4-1-9-2z" fill="#837F79"/>
<path transform="translate(205,615)" d="m0 0h1v17l-1 16-2 3-1 5h-1v-8l2-12 1-19z" fill="#C5C0B7"/>
<path transform="translate(382,395)" d="m0 0h1v44l-3 2z" fill="#171514"/>
<path transform="translate(381,336)" d="m0 0 3 1v44h-1l-1-30-1-8z" fill="#1F1D1A"/>
<path transform="translate(190,168)" d="m0 0 33 1v2h-33z" fill="#733D1F"/>
<path transform="translate(440,516)" d="m0 0h3l1 7-1 13-3 1z" fill="#D4B399"/>
<path transform="translate(453,143)" d="m0 0h2l1 5 2 1-1 1 1 7 2 3v8l-2-4h-2l-1 2-1-19z" fill="#D16026"/>
<path transform="translate(510,591)" d="m0 0h1v46h-1v-24h-2v-9h1z" fill="#D15F27"/>
<path transform="translate(407,112)" d="m0 0h41l-2 2h-6l-2 4-3-4-28-1z" fill="#D16226"/>
<path transform="translate(187,199)" d="m0 0 4 4 1 3 31 1v1h-35l-1-1z" fill="#CFBBA8"/>
<path transform="translate(635,698)" d="m0 0 1 4-4 4h-23l-1-2 26-1z" fill="#C5C0B7"/>
<path transform="translate(201,466)" d="m0 0h1l1 17v18l-2-1-1-17z" fill="#AAA5A0"/>
<path transform="translate(262,136)" d="m0 0h4v2l6-1 5 1 3 2h-26v-1l6-2z" fill="#CFC6BA"/>
<path transform="translate(202,579)" d="m0 0 2 1 1 6v10l1 9-1 10h-1l-1-16-1-10z" fill="#C5C0B7"/>
<path transform="translate(338,324)" d="m0 0h9l6 4-3 1-14-1z" fill="#E0CFBD"/>
<path transform="translate(280,137)" d="m0 0h14l6 1v2h-20l-3-2z" fill="#C8C2B8"/>
<path transform="translate(64,415)" d="m0 0 5 1 2 2-4 4h-4l-1 2-3-1 3-6z" fill="#C3BEB5"/>
<path transform="translate(188,170)" d="m0 0 1 2 7 1-1 5h-2l-1 2-5-1z" fill="#D5B9A1"/>
<path transform="translate(497,503)" d="m0 0h2l1 4-1 19-2-4-1-18z" fill="#CD5A24"/>
<path transform="translate(332,469)" d="m0 0h22l-3 3h-19z" fill="#2F2D29"/>
<path transform="translate(205,78)" d="m0 0h7l-1 2 22 1v1h-26l-3-2z" fill="#1B1917"/>
<path transform="translate(248,555)" d="m0 0h3v20h-10v-1l7-1 1-4v-9z" fill="#191715"/>
<path transform="translate(438,132)" d="m0 0 2 2v9h-1v-6h-2l-1 16h-1v-15l2-5z" fill="#D26625"/>
<path transform="translate(192,89)" d="m0 0 4 1-9 2-2 4-4 3-2 3 1-5 3-5z" fill="#AAA5A0"/>
<path transform="translate(455,300)" d="m0 0 4 2v10l-4-2z" fill="#DFC8B3"/>
<path transform="translate(406,254)" d="m0 0h1v23h-2v-11l1-6-2-1 1-2-2-1z" fill="#D8CBBC"/>
<path transform="translate(405,199)" d="m0 0 3 1v8l-4-1-1-1v-6z" fill="#E2CDB8"/>
<path transform="translate(192,78)" d="m0 0h13l-1 3h-13z" fill="#171514"/>
<path transform="translate(347,137)" d="m0 0m-8 0h7l3 3h-21v-1z" fill="#D3C8BB"/>
<path transform="translate(604,43)" d="m0 0 6 1 4 2 2 4-12-3-3 1 1-3h2z" fill="#837F79"/>
<path transform="translate(426,530)" d="m0 0 1 4-1 19h-1l-1-10v-12z" fill="#CEBBAA"/>
<path transform="translate(402,144)" d="m0 0h5v8h-3l-4-7z" fill="#E6D3C0"/>
<path transform="translate(178,740)" d="m0 0 8 2 5 2 7 1-1 2-7-1-11-4z" fill="#837F79"/>
<path transform="translate(502,499)" d="m0 0 2 1v11h-1v-5l-4-1-1-3z" fill="#C59B7B"/>
<path transform="translate(187,199)" d="m0 0 4 4 1 3-1 2-4-1z" fill="#D6B89F"/>
<path transform="translate(373,319)" d="m0 0 5 5 3 6-1 4-1-5h-2l-3-7z" fill="#23201E"/>
<path transform="translate(434,292)" d="m0 0h1v10l-3 1v-9h2z" fill="#773D1E"/>
<path transform="translate(560,796)" d="m0 0 6 1v3h-8z" fill="#837F79"/>
<path transform="translate(599,671)" d="m0 0h3l1 6-4 1-1-4z" fill="#E8D5C1"/>
</svg>
